<svg width="666.2300292968749px" height="120.8px" xmlns="http://www.w3.org/2000/svg" viewBox="-83.11501464843747 14.600000000000001 666.2300292968749 120.8" style="background: rgba(0, 0, 0, 0);" preserveAspectRatio="xMidYMid"><defs><linearGradient id="editing-gradient-gradient" x1="0" x2="1" y1="0.5" y2="0.5" gradientUnits="objectBoundingBox"><stop offset="0" stop-color="#f0f"></stop><stop offset="1" stop-color="#0ff"></stop></linearGradient></defs><g><g transform="translate(12.820016950368881, 104.47000122070312)"><path d="M14.34 0L0.38 0L8.51-42.24L22.59-42.24L14.34 0ZM70.08 1.28L70.08 1.28L70.08 1.28Q62.34 1.28 62.34-4.74L62.34-4.74L62.34-4.74Q62.34-7.36 63.46-12.45L63.46-12.45L63.46-12.45Q64.58-17.54 64.96-19.58L64.96-19.58L64.96-19.58Q65.86-24.26 65.86-25.73L65.86-25.73L65.86-25.73Q65.86-28.99 63.42-28.99L63.42-28.99L63.42-28.99Q61.82-28.99 60.29-26.78L60.29-26.78L60.29-26.78Q58.75-24.58 58.05-20.16L58.05-20.16L54.08 0L41.60 1.28L45.06-16.13L45.06-16.13Q45.63-19.01 46.14-22.27L46.14-22.27L46.14-22.27Q46.66-25.54 46.66-26.05L46.66-26.05L46.66-26.05Q46.66-28.99 44.48-28.99L44.48-28.99L44.48-28.99Q43.01-28.99 41.41-26.82L41.41-26.82L41.41-26.82Q39.81-24.64 38.91-20.16L38.91-20.16L35.01 0L22.40 1.28L29.12-32.64L39.55-33.92L38.46-27.46L38.46-27.46Q40.13-30.91 43.20-32.42L43.20-32.42L43.20-32.42Q46.27-33.92 51.07-33.92L51.07-33.92L51.07-33.92Q53.82-33.92 55.62-32.58L55.62-32.58L55.62-32.58Q57.41-31.23 57.98-29.06L57.98-29.06L57.98-29.06Q59.07-31.30 61.86-32.61L61.86-32.61L61.86-32.61Q64.64-33.92 68.06-33.92L68.06-33.92L68.06-33.92Q71.49-33.92 73.18-33.18L73.18-33.18L73.18-33.18Q74.88-32.45 75.90-31.23L75.90-31.23L75.90-31.23Q77.63-28.99 77.63-24.90L77.63-24.90L77.63-24.90Q77.63-20.86 75.90-12.48L75.90-12.48L75.90-12.48Q75.01-8.38 75.01-6.88L75.01-6.88L75.01-6.88Q75.01-5.38 75.87-4.48L75.87-4.48L75.87-4.48Q76.74-3.58 78.02-3.46L78.02-3.46L78.02-3.46Q77.38-1.28 75.17 0L75.17 0L75.17 0Q72.96 1.28 70.08 1.28ZM85.73-1.92L85.73-1.92L85.73-1.92Q84.22-3.58 83.55-6.21L83.55-6.21L83.55-6.21Q82.88-8.83 82.88-13.12L82.88-13.12L82.88-13.12Q82.88-17.41 84.35-21.31L84.35-21.31L84.35-21.31Q85.82-25.22 88.51-28.03L88.51-28.03L88.51-28.03Q94.02-33.92 103.10-33.92L103.10-33.92L103.10-33.92Q106.37-33.92 108.74-32.83L108.74-32.83L119.68-33.92L114.94-8.96L114.94-8.96Q114.75-8.19 114.75-6.78L114.75-6.78L114.75-6.78Q114.75-5.38 115.62-4.48L115.62-4.48L115.62-4.48Q116.48-3.58 117.76-3.46L117.76-3.46L117.76-3.46Q117.12-1.28 114.78 0L114.78 0L114.78 0Q112.45 1.28 109.82 1.28L109.82 1.28L109.82 1.28Q107.20 1.28 105.44 0.29L105.44 0.29L105.44 0.29Q103.68-0.70 103.17-2.37L103.17-2.37L103.17-2.37Q102.14-0.77 99.97 0.26L99.97 0.26L99.97 0.26Q97.79 1.28 94.88 1.28L94.88 1.28L94.88 1.28Q91.97 1.28 89.60 0.51L89.60 0.51L89.60 0.51Q87.23-0.26 85.73-1.92ZM99.23-27.90L99.23-27.90L99.23-27.90Q98.50-26.75 97.86-24.80L97.86-24.80L97.86-24.80Q97.22-22.85 96.16-17.63L96.16-17.63L96.16-17.63Q95.10-12.42 95.10-8.70L95.10-8.70L95.10-8.70Q95.10-4.99 95.68-3.90L95.68-3.90L95.68-3.90Q96.26-2.82 97.28-2.82L97.28-2.82L97.28-2.82Q99.33-2.82 100.83-4.77L100.83-4.77L100.83-4.77Q102.34-6.72 102.91-10.18L102.91-10.18L106.30-28.93L106.30-28.93Q104.96-30.08 103.39-30.08L103.39-30.08L103.39-30.08Q101.82-30.08 100.90-29.57L100.90-29.57L100.90-29.57Q99.97-29.06 99.23-27.90ZM127.42-26.75L127.42-26.75L127.42-26.75Q129.60-29.82 132.90-31.87L132.90-31.87L132.90-31.87Q136.19-33.92 140.22-33.92L140.22-33.92L140.22-33.92Q144.26-33.92 146.18-32.64L146.18-32.64L158.72-33.92L154.37-9.34L154.37-9.34Q152.13 3.20 147.39 8.13L147.39 8.13L147.39 8.13Q142.85 12.80 134.02 12.80L134.02 12.80L134.02 12.80Q127.30 12.80 123.46 10.69L123.46 10.69L123.46 10.69Q119.62 8.58 119.62 5.06L119.62 5.06L119.62 5.06Q119.62 2.43 121.60 0.93L121.60 0.93L121.60 0.93Q123.58-0.58 126.66-0.58L126.66-0.58L126.66-0.58Q129.34-0.58 131.39 0.64L131.39 0.64L131.39 0.64Q132.61 1.28 133.18 2.18L133.18 2.18L133.18 2.18Q131.71 3.46 131.71 5.57L131.71 5.57L131.71 5.57Q131.71 8.32 134.27 8.32L134.27 8.32L134.27 8.32Q138.56 8.32 140.99-1.79L140.99-1.79L140.99-1.79Q141.70-4.54 142.27-7.30L142.27-7.30L142.27-7.30Q139.39-3.78 132.86-3.78L132.86-3.78L132.86-3.78Q128.32-3.78 125.70-5.95L125.70-5.95L125.70-5.95Q123.07-8.13 123.07-13.25L123.07-13.25L123.07-13.25Q123.07-16.45 124.16-20.06L124.16-20.06L124.16-20.06Q125.25-23.68 127.42-26.75ZM135.74-13.06L135.74-13.06L135.74-13.06Q135.74-8.70 137.98-8.70L137.98-8.70L137.98-8.70Q139.52-8.70 140.99-10.37L140.99-10.37L140.99-10.37Q142.14-11.71 142.59-13.70L142.59-13.70L145.86-30.14L145.86-30.14Q145.54-30.21 145.22-30.34L145.22-30.34L145.22-30.34Q144.58-30.59 143.74-30.59L143.74-30.59L143.74-30.59Q139.84-30.59 137.54-24.19L137.54-24.19L137.54-24.19Q135.74-19.20 135.74-13.06ZM187.14-10.82L187.14-10.82L187.14-10.82Q188.74-9.73 188.74-7.33L188.74-7.33L188.74-7.33Q188.74-4.93 187.52-3.39L187.52-3.39L187.52-3.39Q186.30-1.86 184.32-0.83L184.32-0.83L184.32-0.83Q180.22 1.28 175.81 1.28L175.81 1.28L175.81 1.28Q171.39 1.28 168.80 0.32L168.80 0.32L168.80 0.32Q166.21-0.64 164.48-2.43L164.48-2.43L164.48-2.43Q161.09-5.82 161.09-12.03L161.09-12.03L161.09-12.03Q161.09-21.70 166.34-27.58L166.34-27.58L166.34-27.58Q171.97-33.92 181.76-33.92L181.76-33.92L181.76-33.92Q187.84-33.92 190.85-31.36L190.85-31.36L190.85-31.36Q193.09-29.44 193.09-26.30L193.09-26.30L193.09-26.30Q193.09-15.04 173.63-15.04L173.63-15.04L173.63-15.04Q173.38-13.38 173.38-11.97L173.38-11.97L173.38-11.97Q173.38-9.02 174.69-7.90L174.69-7.90L174.69-7.90Q176-6.78 178.43-6.78L178.43-6.78L178.43-6.78Q180.86-6.78 183.46-7.90L183.46-7.90L183.46-7.90Q186.05-9.02 187.14-10.82ZM174.08-17.79L174.08-17.79L174.08-17.79Q178.62-17.79 181.25-20.61L181.25-20.61L181.25-20.61Q183.87-23.30 183.87-27.58L183.87-27.58L183.87-27.58Q183.87-29.06 183.33-29.86L183.33-29.86L183.33-29.86Q182.78-30.66 181.70-30.66L181.70-30.66L181.70-30.66Q180.61-30.66 179.68-30.24L179.68-30.24L179.68-30.24Q178.75-29.82 177.79-28.42L177.79-28.42L177.79-28.42Q175.42-25.22 174.08-17.79ZM214.40-22.46L214.40-22.46L214.40-22.46Q215.30-24.83 215.30-26.88L215.30-26.88L215.30-26.88Q215.30-30.66 212.22-30.66L212.22-30.66L212.22-30.66Q210.62-30.66 209.31-29.22L209.31-29.22L209.31-29.22Q208-27.78 208-25.98L208-25.98L208-25.98Q208-24.70 209.02-23.68L209.02-23.68L209.02-23.68Q210.50-22.27 214.27-19.97L214.27-19.97L214.27-19.97Q218.05-17.66 219.49-15.78L219.49-15.78L219.49-15.78Q220.93-13.89 220.93-11.30L220.93-11.30L220.93-11.30Q220.93-8.70 219.68-6.34L219.68-6.34L219.68-6.34Q218.43-3.97 216.19-2.30L216.19-2.30L216.19-2.30Q211.39 1.28 203.71 1.28L203.71 1.28L203.71 1.28Q199.55 1.28 196.35-0.90L196.35-0.90L196.35-0.90Q193.15-3.01 193.15-5.50L193.15-5.50L193.15-5.50Q193.15-8 194.98-9.47L194.98-9.47L194.98-9.47Q196.80-10.94 199.49-10.94L199.49-10.94L199.49-10.94Q202.18-10.94 203.84-9.92L203.84-9.92L203.84-9.92Q203.01-7.81 203.01-6.40L203.01-6.40L203.01-6.40Q203.01-2.18 206.59-2.18L206.59-2.18L206.59-2.18Q208.13-2.18 209.15-3.14L209.15-3.14L209.15-3.14Q210.18-4.10 210.18-5.76L210.18-5.76L210.18-5.76Q210.18-9.02 204.67-12.48L204.67-12.48L204.67-12.48Q200.19-15.42 199.17-16.58L199.17-16.58L199.17-16.58Q197.44-18.62 197.44-21.18L197.44-21.18L197.44-21.18Q197.44-23.74 198.66-26.18L198.66-26.18L198.66-26.18Q199.87-28.61 202.11-30.34L202.11-30.34L202.11-30.34Q206.78-33.92 214.91-33.92L214.91-33.92L214.91-33.92Q219.07-33.92 221.54-32.26L221.54-32.26L221.54-32.26Q224-30.59 224-27.78L224-27.78L224-27.78Q224-24.96 222.30-23.36L222.30-23.36L222.30-23.36Q220.61-21.76 217.54-21.76L217.54-21.76L217.54-21.76Q215.42-21.76 214.40-22.46ZM265.47-20.61L278.40-21.76L278.40-21.76Q273.79-11.65 273.79 0.06L273.79 0.06L273.79 0.06Q272.06 1.28 269.54 1.28L269.54 1.28L269.54 1.28Q267.01 1.28 265.41 0.10L265.41 0.10L265.41 0.10Q263.81-1.09 263.49-2.30L263.49-2.30L263.49-2.30Q261.89-0.64 259.30 0.32L259.30 0.32L259.30 0.32Q256.70 1.28 253.95 1.28L253.95 1.28L253.95 1.28Q251.20 1.28 248.80 0.38L248.80 0.38L248.80 0.38Q246.40-0.51 244.54-2.50L244.54-2.50L244.54-2.50Q240.45-6.85 240.45-15.10L240.45-15.10L240.45-15.10Q240.45-27.90 247.30-35.58L247.30-35.58L247.30-35.58Q254.34-43.52 266.82-43.52L266.82-43.52L266.82-43.52Q275.46-43.52 278.53-39.04L278.53-39.04L278.53-39.04Q279.49-37.63 279.49-35.94L279.49-35.94L279.49-35.94Q279.49-34.24 278.75-32.80L278.75-32.80L278.75-32.80Q278.02-31.36 276.86-30.21L276.86-30.21L276.86-30.21Q274.11-27.65 270.72-27.65L270.72-27.65L270.72-27.65Q269.38-27.65 268.10-28.10L268.10-28.10L268.10-28.10Q268.35-30.02 268.35-32.26L268.35-32.26L268.35-32.26Q268.35-34.50 268.19-35.52L268.19-35.52L268.19-35.52Q268.03-36.54 267.65-37.38L267.65-37.38L267.65-37.38Q266.82-39.10 264.99-39.10L264.99-39.10L264.99-39.10Q263.17-39.10 261.15-37.15L261.15-37.15L261.15-37.15Q259.14-35.20 257.54-32L257.54-32L257.54-32Q254.02-24.83 254.02-16.19L254.02-16.19L254.02-16.19Q254.02-12.22 255.55-9.41L255.55-9.41L255.55-9.41Q257.22-6.34 260.16-6.34L260.16-6.34L260.16-6.34Q261.18-6.34 262.11-6.85L262.11-6.85L262.11-6.85Q263.04-7.36 263.42-7.74L263.42-7.74L265.47-20.61ZM284.32-1.92L284.32-1.92L284.32-1.92Q282.82-3.58 282.14-6.21L282.14-6.21L282.14-6.21Q281.47-8.83 281.47-13.12L281.47-13.12L281.47-13.12Q281.47-17.41 282.94-21.31L282.94-21.31L282.94-21.31Q284.42-25.22 287.10-28.03L287.10-28.03L287.10-28.03Q292.61-33.92 301.70-33.92L301.70-33.92L301.70-33.92Q304.96-33.92 307.33-32.83L307.33-32.83L318.27-33.92L313.54-8.96L313.54-8.96Q313.34-8.19 313.34-6.78L313.34-6.78L313.34-6.78Q313.34-5.38 314.21-4.48L314.21-4.48L314.21-4.48Q315.07-3.58 316.35-3.46L316.35-3.46L316.35-3.46Q315.71-1.28 313.38 0L313.38 0L313.38 0Q311.04 1.28 308.42 1.28L308.42 1.28L308.42 1.28Q305.79 1.28 304.03 0.29L304.03 0.29L304.03 0.29Q302.27-0.70 301.76-2.37L301.76-2.37L301.76-2.37Q300.74-0.77 298.56 0.26L298.56 0.26L298.56 0.26Q296.38 1.28 293.47 1.28L293.47 1.28L293.47 1.28Q290.56 1.28 288.19 0.51L288.19 0.51L288.19 0.51Q285.82-0.26 284.32-1.92ZM297.82-27.90L297.82-27.90L297.82-27.90Q297.09-26.75 296.45-24.80L296.45-24.80L296.45-24.80Q295.81-22.85 294.75-17.63L294.75-17.63L294.75-17.63Q293.70-12.42 293.70-8.70L293.70-8.70L293.70-8.70Q293.70-4.99 294.27-3.90L294.27-3.90L294.27-3.90Q294.85-2.82 295.87-2.82L295.87-2.82L295.87-2.82Q297.92-2.82 299.42-4.77L299.42-4.77L299.42-4.77Q300.93-6.72 301.50-10.18L301.50-10.18L304.90-28.93L304.90-28.93Q303.55-30.08 301.98-30.08L301.98-30.08L301.98-30.08Q300.42-30.08 299.49-29.57L299.49-29.57L299.49-29.57Q298.56-29.06 297.82-27.90ZM337.02-3.52L337.02-3.52L337.02-3.52Q335.04 1.28 328.70 1.28L328.70 1.28L328.70 1.28Q325.50 1.28 323.46-0.96L323.46-0.96L323.46-0.96Q321.79-2.82 321.79-4.93L321.79-4.93L321.79-4.93Q321.79-9.73 324.03-20.22L324.03-20.22L328.70-44.80L341.70-46.08L335.49-13.70L335.49-13.70Q334.40-8.96 334.40-7.30L334.40-7.30L334.40-7.30Q334.40-3.65 337.02-3.52ZM357.76-3.52L357.76-3.52L357.76-3.52Q355.78 1.28 349.44 1.28L349.44 1.28L349.44 1.28Q346.24 1.28 344.19-0.96L344.19-0.96L344.19-0.96Q342.53-2.82 342.53-4.93L342.53-4.93L342.53-4.93Q342.53-9.73 344.77-20.22L344.77-20.22L349.44-44.80L362.43-46.08L356.22-13.70L356.22-13.70Q355.14-8.96 355.14-7.30L355.14-7.30L355.14-7.30Q355.14-3.65 357.76-3.52ZM365.98-1.92L365.98-1.92L365.98-1.92Q364.48-3.58 363.81-6.21L363.81-6.21L363.81-6.21Q363.14-8.83 363.14-13.12L363.14-13.12L363.14-13.12Q363.14-17.41 364.61-21.31L364.61-21.31L364.61-21.31Q366.08-25.22 368.77-28.03L368.77-28.03L368.77-28.03Q374.27-33.92 383.36-33.92L383.36-33.92L383.36-33.92Q386.62-33.92 388.99-32.83L388.99-32.83L399.94-33.92L395.20-8.96L395.20-8.96Q395.01-8.19 395.01-6.78L395.01-6.78L395.01-6.78Q395.01-5.38 395.87-4.48L395.87-4.48L395.87-4.48Q396.74-3.58 398.02-3.46L398.02-3.46L398.02-3.46Q397.38-1.28 395.04 0L395.04 0L395.04 0Q392.70 1.28 390.08 1.28L390.08 1.28L390.08 1.28Q387.46 1.28 385.70 0.29L385.70 0.29L385.70 0.29Q383.94-0.70 383.42-2.37L383.42-2.37L383.42-2.37Q382.40-0.77 380.22 0.26L380.22 0.26L380.22 0.26Q378.05 1.28 375.14 1.28L375.14 1.28L375.14 1.28Q372.22 1.28 369.86 0.51L369.86 0.51L369.86 0.51Q367.49-0.26 365.98-1.92ZM379.49-27.90L379.49-27.90L379.49-27.90Q378.75-26.75 378.11-24.80L378.11-24.80L378.11-24.80Q377.47-22.85 376.42-17.63L376.42-17.63L376.42-17.63Q375.36-12.42 375.36-8.70L375.36-8.70L375.36-8.70Q375.36-4.99 375.94-3.90L375.94-3.90L375.94-3.90Q376.51-2.82 377.54-2.82L377.54-2.82L377.54-2.82Q379.58-2.82 381.09-4.77L381.09-4.77L381.09-4.77Q382.59-6.72 383.17-10.18L383.17-10.18L386.56-28.93L386.56-28.93Q385.22-30.08 383.65-30.08L383.65-30.08L383.65-30.08Q382.08-30.08 381.15-29.57L381.15-29.57L381.15-29.57Q380.22-29.06 379.49-27.90ZM423.42-17.98L423.42-17.98L423.42-17.98Q425.73-22.08 425.73-26.24L425.73-26.24L425.73-26.24Q425.73-28.99 423.74-28.99L423.74-28.99L423.74-28.99Q422.21-28.99 420.61-26.37L420.61-26.37L420.61-26.37Q418.94-23.74 418.43-20.35L418.43-20.35L415.10 0L401.86 1.28L408.38-32.64L418.94-33.92L417.79-27.46L417.79-27.46Q420.93-33.92 427.97-33.92L427.97-33.92L427.97-33.92Q431.68-33.92 433.70-32L433.70-32L433.70-32Q435.71-30.08 435.71-26.14L435.71-26.14L435.71-26.14Q435.71-22.21 433.12-19.71L433.12-19.71L433.12-19.71Q430.53-17.22 426.11-17.22L426.11-17.22L426.11-17.22Q424.19-17.22 423.42-17.98ZM457.09-7.23L457.09-7.23L457.09-7.23Q453.76-3.78 447.68-3.78L447.68-3.78L447.68-3.78Q440.06-3.78 438.46-9.34L438.46-9.34L438.46-9.34Q437.95-11.01 437.95-12.86L437.95-12.86L437.95-12.86Q437.95-14.72 438.34-16.64L438.34-16.64L441.34-32.64L454.34-33.92L450.82-15.30L450.82-15.30Q450.69-14.46 450.50-13.57L450.50-13.57L450.50-13.57Q450.30-12.67 450.30-11.74L450.30-11.74L450.30-11.74Q450.30-10.82 450.62-10.21L450.62-10.21L450.62-10.21Q450.94-9.60 451.39-9.22L451.39-9.22L451.39-9.22Q452.16-8.70 453.54-8.70L453.54-8.70L453.54-8.70Q454.91-8.70 456.10-10.37L456.10-10.37L456.10-10.37Q457.28-12.03 457.86-14.91L457.86-14.91L461.38-32.64L473.98-33.92L469.18-8.77L469.18-8.77Q466.82 3.52 461.95 8.38L461.95 8.38L461.95 8.38Q459.46 10.88 456.22 11.87L456.22 11.87L456.22 11.87Q452.99 12.86 448.83 12.86L448.83 12.86L448.83 12.86Q442.11 12.86 438.27 10.75L438.27 10.75L438.27 10.75Q434.43 8.64 434.43 5.12L434.43 5.12L434.43 5.12Q434.43 2.50 436.42 0.99L436.42 0.99L436.42 0.99Q438.40-0.51 441.47-0.51L441.47-0.51L441.47-0.51Q444.16-0.51 446.21 0.64L446.21 0.64L446.21 0.64Q447.42 1.34 448.00 2.24L448.00 2.24L448.00 2.24Q446.53 3.52 446.53 5.63L446.53 5.63L446.53 5.63Q446.53 8.45 449.09 8.45L449.09 8.45L449.09 8.45Q453.31 8.45 455.74-1.28L455.74-1.28L455.74-1.28Q456.45-4.16 457.09-7.23Z" fill="url(#editing-gradient-gradient)"></path></g></g><style>text {
  font-size: 64px;
  font-family: Arial Black;
  dominant-baseline: central;
  text-anchor: middle;
}</style></svg>